<svg width="426" height="126" viewBox="0 0 426 126" xmlns="http://www.w3.org/2000/svg"><title>Chico</title><path d="M59 19s-5 3-4 5 14 1 14 1-5 3-4 6-14 1-14 1 8-4-2-2-6 16-14 16-10 4-10 4-1-2-7 0-5 15-5 21 4 9 16 21 27 3 27 3-8 0-2 4 14 4 14 4 37 1 35-10-4 6-11 7-1-19-1-19 3 0 0-11c5-13 2-52 5-70 15 7 15 20 13 22s0 3 0 6-4 3-5 3-2 19 1 23-4-4 18 0 17 23 17 30-13 20-7 17 67-3 77-3 2 0-7-12 16-33 13-31-7-5-4-5 15-2 19-2 5 4 11 6 7 10-3 16-16-2-14-4 7-6-3-2 0 23 14 28 65 1 59 1-11-9-14-12-4-2-4-11 13-17 13-17 1 4 13 0 16 4 16 4 2 8 4 8-2 15-2 15-10 11-2 12 58-6 65-6 28-7 28-7l11 2-11 2 11 1-9 3h12l-9 4h8l-6 4h4s-27 10-65 12 17 5-7 5-27 8-53 5-20-2-37 0-25-1-34-1 1 13-28 8-58-1-84-4-31 3-51 3S0 88 0 71s16-43 38-46 21-6 21-6zm49 91s11-3 17-3-17 1-15-2-2 5-2 5zm2-11c4 0 10 3 12-1s3.105-24-1-29-15-6-16-3 2.688 16 6 16 4.689 8 4 12c-.689 4-9 5-5 5zm183-18c2 3 6 6 13 5s6-17 5-20-6-7-11-7-3 3-3 3-10-3-10 1-3 16 2 16 5-2 6 0-4-1-2 2zM172 94c-4 2-5-17-5-28s11-17 13 3-4 23-8 25zm-1-56s-7.28-3-5-13c2.28-10 7-8 7-8s6-1 6 7-1 13-5 14-3 0-3 0z" fill="#000" fill-rule="evenodd"/></svg>
